<?xml version="1.0" encoding="UTF-8" standalone="no"?>
<svg
   xmlns:dc="http://purl.org/dc/elements/1.1/"
   xmlns:cc="http://creativecommons.org/ns#"
   xmlns:rdf="http://www.w3.org/1999/02/22-rdf-syntax-ns#"
   xmlns:svg="http://www.w3.org/2000/svg"
   xmlns="http://www.w3.org/2000/svg"
   xmlns:sodipodi="http://sodipodi.sourceforge.net/DTD/sodipodi-0.dtd"
   xmlns:inkscape="http://www.inkscape.org/namespaces/inkscape"
   version="1.1"
   x="0px"
   y="0px"
   viewBox="0 0 100 125"
   enable-background="new 0 0 100 100"
   xml:space="preserve"
   id="svg14"
   sodipodi:docname="bridge.svg"
   inkscape:version="0.92.3 (2405546, 2018-03-11)"><metadata
     id="metadata20"><rdf:RDF><cc:Work
         rdf:about=""><dc:format>image/svg+xml</dc:format><dc:type
           rdf:resource="http://purl.org/dc/dcmitype/StillImage" /></cc:Work></rdf:RDF></metadata><defs
     id="defs18" /><sodipodi:namedview
     pagecolor="#ffffff"
     bordercolor="#666666"
     borderopacity="1"
     objecttolerance="10"
     gridtolerance="10"
     guidetolerance="10"
     inkscape:pageopacity="0"
     inkscape:pageshadow="2"
     inkscape:window-width="867"
     inkscape:window-height="480"
     id="namedview16"
     showgrid="false"
     inkscape:zoom="1.888"
     inkscape:cx="-18.061441"
     inkscape:cy="62.5"
     inkscape:window-x="0"
     inkscape:window-y="24"
     inkscape:window-maximized="0"
     inkscape:current-layer="svg14" /><g
     id="g8"
     style="fill:#ffffff;fill-opacity:1"><g
       id="g4"
       style="fill:#ffffff;fill-opacity:1"><path
         d="M36.564,50.54c-0.351,0-0.695-0.129-0.963-0.376l-20.5-18.937c-0.289-0.267-0.453-0.641-0.455-1.034    s0.159-0.769,0.445-1.039l20.5-19.313c0.412-0.387,1.014-0.494,1.533-0.27c0.52,0.224,0.855,0.736,0.855,1.301v10.458h45.958    c0.783,0,1.418,0.635,1.418,1.417v14.5c0,0.783-0.635,1.417-1.418,1.417H37.98v10.457c0,0.563-0.333,1.072-0.849,1.299    C36.949,50.501,36.755,50.54,36.564,50.54z M18.14,30.176l17.006,15.709v-8.636c0-0.783,0.635-1.417,1.417-1.417h45.958V24.166    H36.563c-0.782,0-1.417-0.635-1.417-1.417v-8.593L18.14,30.176z"
         id="path2"
         style="fill:#ffffff;fill-opacity:1" /></g><path
       d="M84.899,68.772l-20.5-18.938c-0.415-0.384-1.017-0.48-1.53-0.258c-0.516,0.227-0.849,0.735-0.849,1.299v10.458H16.063   c-0.782,0-1.417,0.634-1.417,1.417v14.501c0,0.783,0.635,1.417,1.417,1.417h45.958v10.458c0,0.565,0.336,1.077,0.855,1.301   c0.181,0.078,0.372,0.116,0.562,0.116c0.354,0,0.704-0.133,0.972-0.386l20.5-19.313c0.286-0.27,0.447-0.646,0.445-1.038   S85.188,69.039,84.899,68.772z"
       id="path6"
       style="fill:#ffffff;fill-opacity:1" /></g></svg>