<svg xmlns="http://www.w3.org/2000/svg" xmlns:xlink="http://www.w3.org/1999/xlink" version="1.1" x="0px" y="0px" viewBox="0 0 100 125" enable-background="new 0 0 100 100" xml:space="preserve"><g><g><path d="M36.564,50.54c-0.351,0-0.695-0.129-0.963-0.376l-20.5-18.937c-0.289-0.267-0.453-0.641-0.455-1.034    s0.159-0.769,0.445-1.039l20.5-19.313c0.412-0.387,1.014-0.494,1.533-0.27c0.52,0.224,0.855,0.736,0.855,1.301v10.458h45.958    c0.783,0,1.418,0.635,1.418,1.417v14.5c0,0.783-0.635,1.417-1.418,1.417H37.98v10.457c0,0.563-0.333,1.072-0.849,1.299    C36.949,50.501,36.755,50.54,36.564,50.54z M18.14,30.176l17.006,15.709v-8.636c0-0.783,0.635-1.417,1.417-1.417h45.958V24.166    H36.563c-0.782,0-1.417-0.635-1.417-1.417v-8.593L18.14,30.176z"/></g><path d="M84.899,68.772l-20.5-18.938c-0.415-0.384-1.017-0.48-1.53-0.258c-0.516,0.227-0.849,0.735-0.849,1.299v10.458H16.063   c-0.782,0-1.417,0.634-1.417,1.417v14.501c0,0.783,0.635,1.417,1.417,1.417h45.958v10.458c0,0.565,0.336,1.077,0.855,1.301   c0.181,0.078,0.372,0.116,0.562,0.116c0.354,0,0.704-0.133,0.972-0.386l20.5-19.313c0.286-0.27,0.447-0.646,0.445-1.038   S85.188,69.039,84.899,68.772z"/></g><text x="0" y="115" fill="#000000" font-size="5px" font-weight="bold" font-family="'Helvetica Neue', Helvetica, Arial-Unicode, Arial, Sans-serif">Created by Randomhero</text><text x="0" y="120" fill="#000000" font-size="5px" font-weight="bold" font-family="'Helvetica Neue', Helvetica, Arial-Unicode, Arial, Sans-serif">from the Noun Project</text></svg>