<svg xmlns="http://www.w3.org/2000/svg" viewBox="0 0 64 80" x="0px" y="0px"><g><path d="M32,37a3,3,0,1,0,3,3A3,3,0,0,0,32,37Zm0,4a1,1,0,1,1,1-1A1,1,0,0,1,32,41Z"/><rect x="25" y="21" width="14" height="2"/><rect x="25" y="25" width="14" height="2"/><rect x="25" y="29" width="14" height="2"/><rect x="6" y="12" width="4" height="2"/><path d="M57.707,42.293A1,1,0,0,0,57,42H54V40a3,3,0,0,0-3-3H43V25h8a3,3,0,0,0,3-3V15h4a4,4,0,0,0,0-8,4.992,4.992,0,0,0-9.588-1.956,4.009,4.009,0,0,0-2.884,1.992A3.882,3.882,0,0,0,45,7a4,4,0,0,0,0,8h7v7a1,1,0,0,1-1,1H43V20a3,3,0,0,0-3-3H24a3,3,0,0,0-3,3v2.91l-8.991.073a1.037,1.037,0,0,1-.714-.29.994.994,0,0,1-.295-.71V19h8a1,1,0,0,0,1-1V3a1,1,0,0,0-1-1H14a1,1,0,0,0-.707.293L11.586,4H3A1,1,0,0,0,2,5V18a1,1,0,0,0,1,1H9v2.983a3,3,0,0,0,3,3h.025L21,24.91V37H12a3,3,0,0,0-3,3v6H5a3,3,0,0,0-3,3v6a3,3,0,0,0,3,3H7v2H5v2H15V60H13V58h2a3,3,0,0,0,3-3V49a3,3,0,0,0-3-3H11V40a1,1,0,0,1,1-1h9v4a3,3,0,0,0,3,3H40a3,3,0,0,0,3-3V39h8a1,1,0,0,1,1,1v2H46a1,1,0,0,0-1,1V61a1,1,0,0,0,1,1H61a1,1,0,0,0,1-1V47a1,1,0,0,0-.293-.707ZM43,11a1.993,1.993,0,0,1,2.744-1.853.983.983,0,0,0,.818-.033,1,1,0,0,0,.519-.634A1.988,1.988,0,0,1,48.935,7c.033,0,.127.015.16.016a.982.982,0,0,0,1.011-.752A2.992,2.992,0,0,1,56,7a2.957,2.957,0,0,1-.172.948,1,1,0,0,0,1.357,1.231A2,2,0,1,1,58,13H45A2,2,0,0,1,43,11ZM12,6a1,1,0,0,0,.707-.293L14.414,4H18V8H4V6ZM4,10H18v7H4Zm7,50H9V58h2Zm4-4H5a1,1,0,0,1-1-1H16A1,1,0,0,1,15,56Zm1-7v4H4V49a1,1,0,0,1,1-1H15A1,1,0,0,1,16,49Zm25-6a1,1,0,0,1-1,1H24a1,1,0,0,1-1-1V20a1,1,0,0,1,1-1H40a1,1,0,0,1,1,1Zm18.586,4H57V44.414ZM47,60V44h8v4a1,1,0,0,0,1,1h4V60Z"/></g><text x="0" y="79" fill="#000000" font-size="5px" font-weight="bold" font-family="'Helvetica Neue', Helvetica, Arial-Unicode, Arial, Sans-serif">Created by Payungkead Im-anong</text><text x="0" y="84" fill="#000000" font-size="5px" font-weight="bold" font-family="'Helvetica Neue', Helvetica, Arial-Unicode, Arial, Sans-serif">from the Noun Project</text></svg>