<?xml version="1.0" encoding="UTF-8" standalone="no"?>
<svg
   xmlns:dc="http://purl.org/dc/elements/1.1/"
   xmlns:cc="http://creativecommons.org/ns#"
   xmlns:rdf="http://www.w3.org/1999/02/22-rdf-syntax-ns#"
   xmlns:svg="http://www.w3.org/2000/svg"
   xmlns="http://www.w3.org/2000/svg"
   xmlns:sodipodi="http://sodipodi.sourceforge.net/DTD/sodipodi-0.dtd"
   xmlns:inkscape="http://www.inkscape.org/namespaces/inkscape"
   version="1.1"
   x="0px"
   y="0px"
   viewBox="0 0 100 125"
   id="svg10"
   sodipodi:docname="faucet.svg"
   inkscape:version="0.92.3 (2405546, 2018-03-11)">
  <metadata
     id="metadata16">
    <rdf:RDF>
      <cc:Work
         rdf:about="">
        <dc:format>image/svg+xml</dc:format>
        <dc:type
           rdf:resource="http://purl.org/dc/dcmitype/StillImage" />
      </cc:Work>
    </rdf:RDF>
  </metadata>
  <defs
     id="defs14" />
  <sodipodi:namedview
     pagecolor="#ffffff"
     bordercolor="#666666"
     borderopacity="1"
     objecttolerance="10"
     gridtolerance="10"
     guidetolerance="10"
     inkscape:pageopacity="0"
     inkscape:pageshadow="2"
     inkscape:window-width="867"
     inkscape:window-height="480"
     id="namedview12"
     showgrid="false"
     inkscape:zoom="1.888"
     inkscape:cx="-18.061441"
     inkscape:cy="62.5"
     inkscape:window-x="10"
     inkscape:window-y="34"
     inkscape:window-maximized="0"
     inkscape:current-layer="svg10" />
  <g
     transform="translate(0,-952.36218)"
     id="g4"
     style="fill:#ffffff;fill-opacity:1">
    <path
       transform="translate(0,952.36218)"
       d="M 64,15 C 59.310269,15 55.297881,17.951177 53.71875,22.09375 53.156623,22.024802 52.580469,22 52,22 44.279858,22 38,28.27986 38,36 38,43.72014 44.279858,50 52,50 59.457948,50 65.562073,44.139297 65.96875,36.78125 71.094018,35.849756 75,31.38962 75,26 75,19.93671 70.063287,15 64,15 z m 0,2 c 4.982407,0 9,4.01759 9,9 0,4.323509 -3.008575,7.934113 -7.0625,8.8125 C 65.440936,28.909392 61.265785,24.06698 55.71875,22.53125 57.069184,19.277452 60.247951,17 64,17 z m -12,7 c 6.639262,0 12,5.36074 12,12 0,6.63926 -5.360738,12 -12,12 C 45.360738,48 40,42.63926 40,36 40,29.36074 45.360738,24 52,24 z M 28,47 C 19.612409,47 13.480745,51.13455 7.5625,54.09375 7.225295,54.257826 6.9973913,54.625005 7,55 l 0,22 c 0.00784,0.625359 0.7184033,1.132907 1.3125,0.9375 C 13.008397,76.3722 20.09788,74 25,74 c 2.836273,0 6.215166,1.4031 9.625,3.25 3.409834,1.8469 6.851898,4.0822 9.9375,5.625 C 47.528423,84.3252 50.889389,85 53,85 c 4.332753,0 7.229179,-1.501067 10.055195,-3.560561 L 89.59375,61.78125 C 92.468489,59.65155 93,57.4475 93,56 93,54.721 92.496406,53.64475 91.71875,52.96875 90.941094,52.29265 89.948366,52 89,52 86.973091,52 85.056787,52.643735 82.78125,53.96875 82.441543,53.079677 81.833446,52.35768 81.125,51.875 80.202823,51.2467 79.109213,51 78,51 c -1.808812,0 -3.958606,0.85435 -6.4375,2.09375 0,0 -0.858614,0.429264 -1,0.5 C 70.212144,52.890498 69.722846,52.282324 69.125,51.875 68.202817,51.2467 67.109202,51 66,51 64.776626,51 63.32432,51.372319 61.729328,52.019838 61.69462,52.033929 48.15625,57.8125 48.15625,57.8125 44.888994,57.065335 41.770072,54.724012 38.6875,52.34375 35.299117,49.72755 31.926454,47.04216 28,47 z m 0,2 c 2.973983,0.032 6.082242,2.3225 9.46875,4.9375 3.854449,2.990564 7.546189,5.559022 11.59375,6.0625 l 15.625,1.9375 C 65.848767,62.3074 67,63.735 67,65 c 0,1.6687 -1.331313,3 -3,3 L 44,68 C 42.252272,68 41.065684,67.569941 39.90625,66.9375 38.551647,66.1986 37.259397,65.1207 35.5,64.125 c -0.450565,-0.332111 -1.187261,-0.171308 -1.46875,0.3125 -0.281489,0.483809 -0.04264,1.178679 0.46875,1.40625 1.572285,0.8898 2.849471,1.977533 4.4375,2.84375 C 40.295855,69.428438 41.924005,70 44,70 l 20,0 c 2.749591,0 5,-2.2505 5,-5 0,-0.149201 -0.01793,-0.29105 -0.03125,-0.4375 L 83.5,55.84375 C 85.741171,54.49895 87.31076,54 89,54 c 0.525735,0 1.052431,0.16115 1.40625,0.46875 C 90.760069,54.77625 91,55.2135 91,56 c 0,1.1167 -0.104813,2.3438 -2.59375,4.1875 L 61.985353,79.750598 C 59.21584,81.76242 56.527181,83 53,83 c -1.663013,0 -4.938707,-0.62335 -7.5625,-1.90625 -2.914398,-1.4572 -6.33028,-3.722 -9.84375,-5.625 C 32.08028,73.56565 28.47051,72 25,72 19.908934,72 13.640423,74.0725 9,75.625 L 9,55.59375 C 14.877172,52.60205 20.511536,49 28,49 z m 38,4 c 0.793513,0 1.490802,0.18435 2,0.53125 0.345527,0.235464 0.597904,0.552769 0.78125,0.96875 -3.191514,1.597307 -8.510138,4.269707 -9.5,4.78125 L 52,58.375 c 0,0 10.488055,-4.502025 10.528816,-4.518319 C 63.948182,53.289296 65.248613,53 66,53 z m 12,0 c 0.793502,0 1.490796,0.18435 2,0.53125 0.481118,0.32786 0.811799,0.796292 0.96875,1.53125 L 68.375,62.59375 c -0.657189,-1.208504 -1.772952,-2.15175 -3.0625,-2.5625 -0.06132,-0.01633 -2.5,-0.3125 -2.5,-0.3125 l 9.625,-4.8125 C 74.807274,53.72135 76.917908,53 78,53 z"
       style="font-size:medium;font-style:normal;font-variant:normal;font-weight:normal;font-stretch:normal;text-indent:0;text-align:start;text-decoration:none;line-height:normal;letter-spacing:normal;word-spacing:normal;text-transform:none;direction:ltr;block-progression:tb;writing-mode:lr-tb;text-anchor:start;baseline-shift:baseline;opacity:1;color:#000000;fill:#ffffff;fill-opacity:1;stroke:none;stroke-width:2;marker:none;visibility:visible;display:inline;overflow:visible;enable-background:accumulate;font-family:Sans;-inkscape-font-specification:Sans"
       id="path2" />
  </g>
</svg>
