<svg xmlns="http://www.w3.org/2000/svg" data-name="Layer 1" viewBox="0 0 100 125" x="0px" y="0px"><title>54</title><path d="M82.13614,39.68175a3.24157,3.24157,0,0,1-2.11643-5.1129l6.71583-9.2055a1.14537,1.14537,0,0,0,.01592-1.33208A45.014,45.014,0,0,0,75.96861,13.24848a1.14537,1.14537,0,0,0-1.33208.01592l-9.20538,6.71582a3.24159,3.24159,0,0,1-5.113-2.11646L58.55126,6.59855a1.14274,1.14274,0,0,0-.93013-.95222,45.25538,45.25538,0,0,0-15.24232,0,1.14274,1.14274,0,0,0-.93013.95222L39.68176,17.86377a3.2416,3.2416,0,0,1-5.113,2.11646L25.36341,13.2644a1.14539,1.14539,0,0,0-1.33208-.01593,45.01333,45.01333,0,0,0-10.78291,10.7828,1.14539,1.14539,0,0,0,.01591,1.33208l6.71583,9.2055a3.24157,3.24157,0,0,1-2.11643,5.11291l-11.26516,1.767a1.14276,1.14276,0,0,0-.95221.93009,45.24929,45.24929,0,0,0,0,15.24234,1.14274,1.14274,0,0,0,.95222.93008l11.26513,1.76693a3.24161,3.24161,0,0,1,2.11647,5.113l-6.71585,9.20551a1.14539,1.14539,0,0,0-.01591,1.33208,45.01415,45.01415,0,0,0,10.7829,10.78279,1.14539,1.14539,0,0,0,1.33209-.01592l9.20538-6.71583a3.2416,3.2416,0,0,1,5.113,2.11646L41.44868,93.4014a1.14275,1.14275,0,0,0,.93011.95222,45.25217,45.25217,0,0,0,15.24236,0,1.14275,1.14275,0,0,0,.93011-.95222l1.76692-11.26517a3.2416,3.2416,0,0,1,5.113-2.11645l9.20537,6.71582a1.14542,1.14542,0,0,0,1.3321.01591A45.01513,45.01513,0,0,0,86.75146,75.96873a1.14537,1.14537,0,0,0-.01592-1.33208l-6.71583-9.2055a3.24161,3.24161,0,0,1,2.11648-5.113l11.26515-1.76692a1.14275,1.14275,0,0,0,.95222-.93011,45.25187,45.25187,0,0,0,0-15.24231,1.14275,1.14275,0,0,0-.95221-.9301ZM49.99994,67.5a17.5,17.5,0,1,1,17.5-17.5A17.5,17.5,0,0,1,49.99994,67.5Z"/><text x="0" y="115" fill="#000000" font-size="5px" font-weight="bold" font-family="'Helvetica Neue', Helvetica, Arial-Unicode, Arial, Sans-serif">Created by MRK</text><text x="0" y="120" fill="#000000" font-size="5px" font-weight="bold" font-family="'Helvetica Neue', Helvetica, Arial-Unicode, Arial, Sans-serif">from the Noun Project</text></svg>