<?xml version="1.0" encoding="UTF-8" standalone="no"?>
<svg
   xmlns:dc="http://purl.org/dc/elements/1.1/"
   xmlns:cc="http://creativecommons.org/ns#"
   xmlns:rdf="http://www.w3.org/1999/02/22-rdf-syntax-ns#"
   xmlns:svg="http://www.w3.org/2000/svg"
   xmlns="http://www.w3.org/2000/svg"
   xmlns:sodipodi="http://sodipodi.sourceforge.net/DTD/sodipodi-0.dtd"
   xmlns:inkscape="http://www.inkscape.org/namespaces/inkscape"
   viewBox="0 0 64 80"
   x="0px"
   y="0px"
   version="1.1"
   id="svg14"
   sodipodi:docname="uniswap.svg"
   inkscape:version="0.92.3 (2405546, 2018-03-11)">
  <metadata
     id="metadata20">
    <rdf:RDF>
      <cc:Work
         rdf:about="">
        <dc:format>image/svg+xml</dc:format>
        <dc:type
           rdf:resource="http://purl.org/dc/dcmitype/StillImage" />
      </cc:Work>
    </rdf:RDF>
  </metadata>
  <defs
     id="defs18" />
  <sodipodi:namedview
     pagecolor="#ffffff"
     bordercolor="#666666"
     borderopacity="1"
     objecttolerance="10"
     gridtolerance="10"
     guidetolerance="10"
     inkscape:pageopacity="0"
     inkscape:pageshadow="2"
     inkscape:window-width="867"
     inkscape:window-height="480"
     id="namedview16"
     showgrid="false"
     inkscape:zoom="2.95"
     inkscape:cx="-11.559322"
     inkscape:cy="40"
     inkscape:window-x="0"
     inkscape:window-y="24"
     inkscape:window-maximized="0"
     inkscape:current-layer="svg14" />
  <title
     id="title2">unicorn</title>
  <g
     id="g8"
     style="fill:#ffffff;fill-opacity:1">
    <path
       d="M28.18,7a8,8,0,0,0-6.25-3,1,1,0,0,0-1,1v5.83a3.19,3.19,0,0,1-.4,1.55l-1.36,1.37-1-1A28.05,28.05,0,0,0,7.32,6.05a1,1,0,0,0-1,.24,1,1,0,0,0-.24,1,28,28,0,0,0,6.72,10.86l1,1L7.33,25.59A7.91,7.91,0,0,0,7.5,37a8.13,8.13,0,0,0,11.24-.36l1-1a6.71,6.71,0,0,0,.68.4,6.57,6.57,0,0,0,1.16.52,7.91,7.91,0,0,0,2.32.47,9,9,0,0,1-2.68,5.87c-.3.29-.61.56-.92.81a10.08,10.08,0,0,1-1.05.71A17.07,17.07,0,0,0,10.93,59a1,1,0,0,0,1,1h38a1,1,0,0,0,1-1V55.93A7.14,7.14,0,0,0,57,49V36A29.05,29.05,0,0,0,28.18,7ZM52,43a1,1,0,0,1,1-1h2v2H53A1,1,0,0,1,52,43ZM36,10.23V12a1,1,0,0,1-2,0V9.69C34.68,9.84,35.35,10,36,10.23ZM48.93,58H24a12,12,0,0,1,12-11,1,1,0,0,0,1-1V33a1,1,0,0,0-2,0V45A14,14,0,0,0,22,58H13A15,15,0,0,1,20.3,46.09c.45-.28.87-.56,1.26-.86a13.84,13.84,0,0,0,1.08-.95,11,11,0,0,0,3.29-7.66h0a8.5,8.5,0,0,0,5.84-6.47c0-.1,0-.21.05-.31a8.33,8.33,0,0,0,.11-1.33,1,1,0,0,0-2,0A6.48,6.48,0,0,1,23.87,35H23.8a6.27,6.27,0,0,1-1.54-.36,4.68,4.68,0,0,1-.87-.39,5.45,5.45,0,0,1-1.08-.71,1,1,0,0,0-1.36,0l-1.62,1.62a6.12,6.12,0,0,1-8.46.32A5.91,5.91,0,0,1,8.74,27L22,13.71a1.39,1.39,0,0,0,.15-.19,5.14,5.14,0,0,0,.75-2.69V6.08a6,6,0,0,1,3.93,2.5A5.9,5.9,0,0,1,27.93,12v1.33a1,1,0,0,0,.86,1,20,20,0,0,1,2.86.64A24.09,24.09,0,0,1,48.93,38V58ZM54,49a1,1,0,0,1,0-2h1v2Z"
       id="path4"
       style="fill:#ffffff;fill-opacity:1" />
    <circle
       cx="21.5"
       cy="22.5"
       r="1.5"
       id="circle6"
       style="fill:#ffffff;fill-opacity:1" />
  </g>
</svg>
